<svg xmlns="http://www.w3.org/2000/svg" viewBox="0 0 733 1093"><path d="M 369.0 1091.5 L 234.5 901.0 L 110.5 690.0 L 68.5 603.0 L 34.5 517.0 L 12.5 438.0 L 4.5 375.0 L 8.5 309.0 L 26.5 239.0 L 57.5 175.0 L 100.5 118.0 L 151.0 72.5 L 219.0 32.5 L 268.0 14.5 L 342.0 1.5 L 415.0 3.5 L 496.0 23.5 L 556.0 52.5 L 608.0 90.5 L 662.5 150.0 L 699.5 213.0 L 719.5 268.0 L 731.5 338.0 L 729.5 407.0 L 715.5 474.0 L 692.5 544.0 L 654.5 633.0 L 600.5 738.0 L 536.5 847.0 L 451.5 977.0 L 369.0 1091.5 Z" fill="currentColor"/><circle cx="368.5" cy="367.5" r="181.0" fill="#ff3948"/></svg>